<svg width="30" height="30" viewBox="0 0 30 30" fill="none" xmlns="http://www.w3.org/2000/svg">
<path fill-rule="evenodd" clip-rule="evenodd" d="M15 3.6324C14.6454 3.6324 14.2943 3.70223 13.9667 3.83792C13.6391 3.97361 13.3415 4.17249 13.0908 4.42321C12.8401 4.67393 12.6412 4.97157 12.5055 5.29915C12.3698 5.62673 12.3 5.97783 12.3 6.3324C12.3 6.68697 12.3698 7.03806 12.5055 7.36564C12.6412 7.69322 12.8401 7.99087 13.0908 8.24159C13.3415 8.4923 13.6391 8.69118 13.9667 8.82687C14.2943 8.96256 14.6454 9.0324 15 9.0324C15.7161 9.0324 16.4028 8.74793 16.9092 8.24159C17.4155 7.73524 17.7 7.04848 17.7 6.3324C17.7 5.61631 17.4155 4.92956 16.9092 4.42321C16.4028 3.91686 15.7161 3.6324 15 3.6324ZM10.5 6.3324C10.5 5.13892 10.9741 3.99433 11.818 3.15042C12.6619 2.3065 13.8065 1.8324 15 1.8324C16.1934 1.8324 17.338 2.3065 18.182 3.15042C19.0259 3.99433 19.5 5.13892 19.5 6.3324C19.5 7.52587 19.0259 8.67046 18.182 9.51438C17.338 10.3583 16.1934 10.8324 15 10.8324C13.8065 10.8324 12.6619 10.3583 11.818 9.51438C10.9741 8.67046 10.5 7.52587 10.5 6.3324ZM6.59998 20.4324C5.88389 20.4324 5.19714 20.7169 4.69079 21.2232C4.18444 21.7296 3.89998 22.4163 3.89998 23.1324C3.89998 23.8485 4.18444 24.5352 4.69079 25.0416C5.19714 25.5479 5.88389 25.8324 6.59998 25.8324C7.31606 25.8324 8.00282 25.5479 8.50916 25.0416C9.01551 24.5352 9.29998 23.8485 9.29998 23.1324C9.29998 22.4163 9.01551 21.7296 8.50916 21.2232C8.00282 20.7169 7.31606 20.4324 6.59998 20.4324ZM2.09998 23.1324C2.09998 21.9389 2.57408 20.7943 3.41799 19.9504C4.26191 19.1065 5.4065 18.6324 6.59998 18.6324C7.79345 18.6324 8.93804 19.1065 9.78196 19.9504C10.6259 20.7943 11.1 21.9389 11.1 23.1324C11.1 24.3259 10.6259 25.4705 9.78196 26.3144C8.93804 27.1583 7.79345 27.6324 6.59998 27.6324C5.4065 27.6324 4.26191 27.1583 3.41799 26.3144C2.57408 25.4705 2.09998 24.3259 2.09998 23.1324ZM23.4 20.4324C22.6839 20.4324 21.9971 20.7169 21.4908 21.2232C20.9844 21.7296 20.7 22.4163 20.7 23.1324C20.7 23.8485 20.9844 24.5352 21.4908 25.0416C21.9971 25.5479 22.6839 25.8324 23.4 25.8324C24.1161 25.8324 24.8028 25.5479 25.3092 25.0416C25.8155 24.5352 26.1 23.8485 26.1 23.1324C26.1 22.4163 25.8155 21.7296 25.3092 21.2232C24.8028 20.7169 24.1161 20.4324 23.4 20.4324ZM18.9 23.1324C18.9 21.9389 19.3741 20.7943 20.218 19.9504C21.0619 19.1065 22.2065 18.6324 23.4 18.6324C24.5934 18.6324 25.738 19.1065 26.582 19.9504C27.4259 20.7943 27.9 21.9389 27.9 23.1324C27.9 24.3259 27.4259 25.4705 26.582 26.3144C25.738 27.1583 24.5934 27.6324 23.4 27.6324C22.2065 27.6324 21.0619 27.1583 20.218 26.3144C19.3741 25.4705 18.9 24.3259 18.9 23.1324Z" fill="#212B60"/>
<path fill-rule="evenodd" clip-rule="evenodd" d="M15 9.03235C15.2386 9.03235 15.4676 9.12717 15.6363 9.29595C15.8051 9.46474 15.9 9.69365 15.9 9.93235V13.8323H19.254C20.1984 13.8323 20.9832 13.8323 21.6072 13.9043C22.2552 13.9787 22.866 14.1443 23.3712 14.5763C23.8956 15.0263 24.1152 15.5999 24.2112 16.2179C24.3 16.7783 24.3 17.4743 24.3 18.2663V19.5323C24.3 19.771 24.2051 20 24.0363 20.1687C23.8676 20.3375 23.6386 20.4323 23.4 20.4323C23.1613 20.4323 22.9323 20.3375 22.7636 20.1687C22.5948 20 22.5 19.771 22.5 19.5323V18.3323C22.5 17.4539 22.4976 16.9007 22.434 16.4963C22.3776 16.1339 22.29 16.0199 22.1988 15.9431C22.0884 15.8483 21.8964 15.7499 21.4008 15.6923C20.8932 15.6335 20.2128 15.6323 19.2 15.6323H10.8C9.78835 15.6323 9.10795 15.6335 8.59915 15.6923C8.10355 15.7499 7.91155 15.8483 7.80115 15.9431C7.70995 16.0199 7.62235 16.1351 7.56595 16.4963C7.50235 16.9007 7.49995 17.4539 7.49995 18.3323V19.5323C7.49995 19.771 7.40513 20 7.23635 20.1687C7.06756 20.3375 6.83865 20.4323 6.59995 20.4323C6.36126 20.4323 6.13234 20.3375 5.96355 20.1687C5.79477 20 5.69995 19.771 5.69995 19.5323V18.2663C5.69995 17.4743 5.69995 16.7783 5.78755 16.2179C5.88355 15.5999 6.10435 15.0263 6.62875 14.5763C7.13395 14.1443 7.74475 13.9787 8.39275 13.9043C9.01675 13.8323 9.80155 13.8323 10.746 13.8323H14.1V9.93235C14.1 9.69365 14.1948 9.46474 14.3636 9.29595C14.5323 9.12717 14.7613 9.03235 15 9.03235Z" fill="#212B60"/>
</svg>
