<svg width="201" height="65" viewBox="0 0 201 65" fill="none" xmlns="http://www.w3.org/2000/svg">
<path d="M27.3926 36H22.8223V29.8125H6.75586V36H2.18555V23.3965C2.18555 21.5566 2.50195 19.8633 3.13477 18.3164C3.76758 16.7695 4.64648 15.4395 5.77148 14.3262C6.89648 13.2129 8.22656 12.3457 9.76172 11.7246C11.2969 11.1035 12.9727 10.793 14.7891 10.793H25.0898C25.4062 10.793 25.7051 10.8516 25.9863 10.9688C26.2676 11.0859 26.5137 11.25 26.7246 11.4609C26.9355 11.6719 27.0996 11.918 27.2168 12.1992C27.334 12.4805 27.3926 12.7793 27.3926 13.0957V36ZM6.75586 25.2422H22.8223V15.3633H14.7891C14.6484 15.3633 14.3496 15.3867 13.8926 15.4336C13.4473 15.4688 12.9258 15.5684 12.3281 15.7324C11.7422 15.8965 11.1211 16.1484 10.4648 16.4883C9.80859 16.8281 9.20508 17.2969 8.6543 17.8945C8.10352 18.4922 7.64648 19.2422 7.2832 20.1445C6.93164 21.0352 6.75586 22.1191 6.75586 23.3965V25.2422ZM50.5781 29.584C50.5781 30.3691 50.4785 31.0781 50.2793 31.7109C50.0801 32.332 49.8164 32.8828 49.4883 33.3633C49.1602 33.832 48.7793 34.2363 48.3457 34.5762C47.9121 34.9043 47.4551 35.1738 46.9746 35.3848C46.5059 35.5957 46.0254 35.7539 45.5332 35.8594C45.0527 35.9531 44.5957 36 44.1621 36H31.7871V31.4297H44.127C44.748 31.4297 45.2168 31.2715 45.5332 30.9551C45.8496 30.6387 46.0078 30.1816 46.0078 29.584C45.9492 28.3652 45.334 27.7559 44.1621 27.7559H37.0781C36.0703 27.7559 35.2148 27.5801 34.5117 27.2285C33.8086 26.877 33.2344 26.4375 32.7891 25.9102C32.3555 25.3828 32.0391 24.8145 31.8398 24.2051C31.6523 23.5957 31.5586 23.0273 31.5586 22.5C31.5586 21.4805 31.7402 20.625 32.1035 19.9336C32.4668 19.2305 32.9238 18.6621 33.4746 18.2285C34.0254 17.7949 34.623 17.4844 35.2676 17.2969C35.9121 17.0977 36.5156 16.998 37.0781 16.998H48.3105V21.5684H37.1133C36.8789 21.5684 36.6914 21.5977 36.5508 21.6562C36.4219 21.7031 36.3223 21.7734 36.252 21.8672C36.1934 21.9492 36.1582 22.043 36.1465 22.1484C36.1348 22.2422 36.1289 22.3359 36.1289 22.4297C36.1406 22.6172 36.1758 22.7637 36.2344 22.8691C36.293 22.9746 36.3633 23.0508 36.4453 23.0977C36.5391 23.1445 36.6387 23.1738 36.7441 23.1855C36.8613 23.1855 36.9727 23.1855 37.0781 23.1855H44.1621C45.334 23.1855 46.3301 23.3965 47.1504 23.8184C47.9707 24.2402 48.6328 24.7734 49.1367 25.418C49.6406 26.0508 50.0039 26.7422 50.2266 27.4922C50.4609 28.2422 50.5781 28.9395 50.5781 29.584ZM76.1191 36H69.5273L60.3164 27.1055C59.8008 26.6367 59.5605 26.0508 59.5957 25.3477C59.6191 25.0195 59.7012 24.7148 59.8418 24.4336C59.9941 24.1406 60.1992 23.8945 60.457 23.6953L68.8066 16.9629H76.1191L65.3613 25.6289L76.1191 36ZM58.4355 36H53.8652V8.96484H58.4355V36ZM100.395 29.584C100.395 30.498 100.236 31.3477 99.9199 32.1328C99.6035 32.918 99.1582 33.5977 98.584 34.1719C98.0215 34.7461 97.3477 35.1973 96.5625 35.5254C95.7773 35.8418 94.9219 36 93.9961 36H77.2441V31.4297H93.9961C94.5586 31.4297 94.998 31.2715 95.3145 30.9551C95.6309 30.627 95.7891 30.1699 95.7891 29.584V10.793H100.395V29.584ZM125.689 29.584C125.689 30.3691 125.59 31.0781 125.391 31.7109C125.191 32.332 124.928 32.8828 124.6 33.3633C124.271 33.832 123.891 34.2363 123.457 34.5762C123.023 34.9043 122.566 35.1738 122.086 35.3848C121.617 35.5957 121.137 35.7539 120.645 35.8594C120.164 35.9531 119.707 36 119.273 36H111.029C110.396 36 109.705 35.8887 108.955 35.666C108.205 35.4434 107.508 35.0801 106.863 34.5762C106.23 34.0605 105.697 33.3984 105.264 32.5898C104.842 31.7695 104.631 30.7676 104.631 29.584V23.3965C104.631 22.2246 104.842 21.2344 105.264 20.4258C105.697 19.6055 106.23 18.9434 106.863 18.4395C107.508 17.9238 108.205 17.5547 108.955 17.332C109.705 17.1094 110.396 16.998 111.029 16.998H119.273C120.445 16.998 121.441 17.209 122.262 17.6309C123.082 18.0527 123.744 18.5859 124.248 19.2305C124.752 19.8633 125.115 20.5547 125.338 21.3047C125.572 22.0547 125.689 22.752 125.689 23.3965V29.584ZM121.119 23.4316C121.119 22.7988 120.961 22.3301 120.645 22.0254C120.328 21.7207 119.871 21.5684 119.273 21.5684H111.064C110.455 21.5684 109.992 21.7266 109.676 22.043C109.359 22.3477 109.201 22.7988 109.201 23.3965V29.584C109.201 30.1816 109.359 30.6387 109.676 30.9551C109.992 31.2715 110.455 31.4297 111.064 31.4297H119.273C119.895 31.4297 120.357 31.2715 120.662 30.9551C120.967 30.6387 121.119 30.1816 121.119 29.584V23.4316ZM150.721 36H146.15V23.3965C146.15 22.7988 145.998 22.3477 145.693 22.043C145.389 21.7266 144.932 21.5684 144.322 21.5684H136.078V16.998H144.322C144.756 16.998 145.213 17.0508 145.693 17.1562C146.174 17.25 146.648 17.4023 147.117 17.6133C147.598 17.8242 148.055 18.0996 148.488 18.4395C148.922 18.7676 149.303 19.1719 149.631 19.6523C149.959 20.1211 150.223 20.666 150.422 21.2871C150.621 21.9082 150.721 22.6113 150.721 23.3965V36ZM134.232 36H129.662V8.96484H134.232V36ZM175.963 36H171.393V25.4531C171.393 24.8555 171.287 24.3223 171.076 23.8535C170.877 23.373 170.602 22.9629 170.25 22.623C169.898 22.2832 169.482 22.0254 169.002 21.8496C168.533 21.6621 168.023 21.5684 167.473 21.5684H159.475V36H154.904V19.2656C154.904 18.9492 154.963 18.6562 155.08 18.3867C155.197 18.1055 155.361 17.8652 155.572 17.666C155.783 17.4551 156.029 17.291 156.311 17.1738C156.592 17.0566 156.891 16.998 157.207 16.998H167.508C168.082 16.998 168.686 17.0625 169.318 17.1914C169.963 17.3203 170.596 17.5312 171.217 17.8242C171.85 18.1055 172.447 18.4688 173.01 18.9141C173.584 19.3477 174.088 19.8809 174.521 20.5137C174.967 21.1348 175.318 21.8555 175.576 22.6758C175.834 23.4961 175.963 24.4219 175.963 25.4531V36ZM199.465 19.2656C199.465 19.9102 199.354 20.6074 199.131 21.3574C198.908 22.1074 198.539 22.8047 198.023 23.4492C197.52 24.0938 196.857 24.6328 196.037 25.0664C195.229 25.4883 194.238 25.6992 193.066 25.6992H189.182V29.8125H184.594V23.3965C184.594 23.0801 184.652 22.7871 184.77 22.5176C184.887 22.2363 185.045 21.9902 185.244 21.7793C185.455 21.5684 185.695 21.4043 185.965 21.2871C186.246 21.1582 186.545 21.0938 186.861 21.0938H193.066C193.664 21.0938 194.115 20.9414 194.42 20.6367C194.736 20.332 194.895 19.875 194.895 19.2656V17.209C194.895 16.6113 194.742 16.1543 194.438 15.8379C194.133 15.5215 193.676 15.3633 193.066 15.3633H178.406V10.793H193.066C193.711 10.793 194.408 10.9102 195.158 11.1445C195.908 11.3672 196.6 11.7305 197.232 12.2344C197.877 12.7383 198.41 13.4004 198.832 14.2207C199.254 15.041 199.465 16.0371 199.465 17.209V19.2656ZM189.129 33.6973C189.129 34.0137 189.07 34.3125 188.953 34.5938C188.836 34.8633 188.672 35.1035 188.461 35.3145C188.262 35.5137 188.021 35.6719 187.74 35.7891C187.471 35.9062 187.178 35.9648 186.861 35.9648C186.557 35.9648 186.264 35.9062 185.982 35.7891C185.713 35.6719 185.473 35.5137 185.262 35.3145C185.062 35.1035 184.898 34.8633 184.77 34.5938C184.652 34.3125 184.594 34.0137 184.594 33.6973C184.594 33.3926 184.652 33.1055 184.77 32.8359C184.898 32.5547 185.062 32.3145 185.262 32.1152C185.473 31.9043 185.713 31.7402 185.982 31.623C186.264 31.4941 186.557 31.4297 186.861 31.4297C187.178 31.4297 187.471 31.4941 187.74 31.623C188.021 31.7402 188.262 31.9043 188.461 32.1152C188.672 32.3145 188.836 32.5547 188.953 32.8359C189.07 33.1055 189.129 33.3926 189.129 33.6973Z" fill="white"/>
<path d="M47.415 47.848L43.783 54.792V59H42.327V54.792L38.679 47.848H40.295L43.047 53.496L45.799 47.848H47.415ZM52.7748 59.144C51.9534 59.144 51.2068 58.9573 50.5348 58.584C49.8734 58.2107 49.3508 57.6827 48.9668 57C48.5934 56.3067 48.4068 55.5067 48.4068 54.6C48.4068 53.704 48.5988 52.9147 48.9828 52.232C49.3774 51.5387 49.9108 51.0107 50.5828 50.648C51.2548 50.2747 52.0068 50.088 52.8388 50.088C53.6708 50.088 54.4228 50.2747 55.0948 50.648C55.7668 51.0107 56.2948 51.5333 56.6788 52.216C57.0734 52.8987 57.2708 53.6933 57.2708 54.6C57.2708 55.5067 57.0681 56.3067 56.6628 57C56.2681 57.6827 55.7294 58.2107 55.0468 58.584C54.3641 58.9573 53.6068 59.144 52.7748 59.144ZM52.7748 57.864C53.2974 57.864 53.7881 57.7413 54.2468 57.496C54.7054 57.2507 55.0734 56.8827 55.3508 56.392C55.6388 55.9013 55.7828 55.304 55.7828 54.6C55.7828 53.896 55.6441 53.2987 55.3668 52.808C55.0894 52.3173 54.7268 51.9547 54.2788 51.72C53.8308 51.4747 53.3454 51.352 52.8228 51.352C52.2894 51.352 51.7988 51.4747 51.3508 51.72C50.9134 51.9547 50.5614 52.3173 50.2948 52.808C50.0281 53.2987 49.8948 53.896 49.8948 54.6C49.8948 55.3147 50.0228 55.9173 50.2788 56.408C50.5454 56.8987 50.8974 57.2667 51.3348 57.512C51.7721 57.7467 52.2521 57.864 52.7748 57.864ZM66.9611 50.232V59H65.5051V57.704C65.2278 58.152 64.8385 58.504 64.3371 58.76C63.8465 59.0053 63.3025 59.128 62.7051 59.128C62.0225 59.128 61.4091 58.9893 60.8651 58.712C60.3211 58.424 59.8891 57.9973 59.5691 57.432C59.2598 56.8667 59.1051 56.1787 59.1051 55.368V50.232H60.5451V55.176C60.5451 56.04 60.7638 56.7067 61.2011 57.176C61.6385 57.6347 62.2358 57.864 62.9931 57.864C63.7718 57.864 64.3851 57.624 64.8331 57.144C65.2811 56.664 65.5051 55.9653 65.5051 55.048V50.232H66.9611ZM70.8755 51.656C71.1315 51.1547 71.4942 50.7653 71.9635 50.488C72.4435 50.2107 73.0248 50.072 73.7075 50.072V51.576H73.3235C71.6915 51.576 70.8755 52.4613 70.8755 54.232V59H69.4195V50.232H70.8755V51.656ZM85.9579 47.848V49.032H81.1099V52.792H85.0459V53.976H81.1099V59H79.6539V47.848H85.9579ZM88.4684 48.808C88.191 48.808 87.9564 48.712 87.7644 48.52C87.5724 48.328 87.4764 48.0933 87.4764 47.816C87.4764 47.5387 87.5724 47.304 87.7644 47.112C87.9564 46.92 88.191 46.824 88.4684 46.824C88.735 46.824 88.959 46.92 89.1404 47.112C89.3324 47.304 89.4284 47.5387 89.4284 47.816C89.4284 48.0933 89.3324 48.328 89.1404 48.52C88.959 48.712 88.735 48.808 88.4684 48.808ZM89.1724 50.232V59H87.7164V50.232H89.1724ZM96.2299 59L94.1499 55.736L92.1499 59H90.6299L93.4619 54.648L90.6299 50.232H92.2779L94.3579 53.48L96.3419 50.232H97.8619L95.0459 54.568L97.8779 59H96.2299ZM105.39 52.52V53.752H99.0061V52.52H105.39ZM109.579 47.848V59H108.123V47.848H109.579ZM113.836 51.432V56.6C113.836 57.0267 113.927 57.3307 114.108 57.512C114.289 57.6827 114.604 57.768 115.052 57.768H116.124V59H114.812C114.001 59 113.393 58.8133 112.988 58.44C112.583 58.0667 112.38 57.4533 112.38 56.6V51.432H111.244V50.232H112.38V48.024H113.836V50.232H116.124V51.432H113.836ZM130.602 51.08C130.293 50.4293 129.845 49.928 129.258 49.576C128.671 49.2133 127.989 49.032 127.21 49.032C126.431 49.032 125.727 49.2133 125.098 49.576C124.479 49.928 123.989 50.44 123.626 51.112C123.274 51.7733 123.098 52.5413 123.098 53.416C123.098 54.2907 123.274 55.0587 123.626 55.72C123.989 56.3813 124.479 56.8933 125.098 57.256C125.727 57.608 126.431 57.784 127.21 57.784C128.298 57.784 129.194 57.4587 129.898 56.808C130.602 56.1573 131.013 55.2773 131.13 54.168H126.682V52.984H132.682V54.104C132.597 55.0213 132.309 55.864 131.818 56.632C131.327 57.3893 130.682 57.992 129.882 58.44C129.082 58.8773 128.191 59.096 127.21 59.096C126.175 59.096 125.231 58.856 124.378 58.376C123.525 57.8853 122.847 57.208 122.346 56.344C121.855 55.48 121.61 54.504 121.61 53.416C121.61 52.328 121.855 51.352 122.346 50.488C122.847 49.6133 123.525 48.936 124.378 48.456C125.231 47.9653 126.175 47.72 127.21 47.72C128.394 47.72 129.439 48.0133 130.346 48.6C131.263 49.1867 131.93 50.0133 132.346 51.08H130.602ZM142.383 50.232V59H140.927V57.704C140.65 58.152 140.26 58.504 139.759 58.76C139.268 59.0053 138.724 59.128 138.127 59.128C137.444 59.128 136.831 58.9893 136.287 58.712C135.743 58.424 135.311 57.9973 134.991 57.432C134.682 56.8667 134.527 56.1787 134.527 55.368V50.232H135.967V55.176C135.967 56.04 136.186 56.7067 136.623 57.176C137.06 57.6347 137.658 57.864 138.415 57.864C139.194 57.864 139.807 57.624 140.255 57.144C140.703 56.664 140.927 55.9653 140.927 55.048V50.232H142.383ZM152.393 50.232L147.113 63.128H145.609L147.337 58.904L143.801 50.232H145.417L148.169 57.336L150.889 50.232H152.393Z" fill="white"/>
</svg>
