<svg width="27" height="27" viewBox="0 0 27 27" fill="none" xmlns="http://www.w3.org/2000/svg">
<path fill-rule="evenodd" clip-rule="evenodd" d="M26.5 22.7857V7.92857C26.5 6.94348 26.1265 5.99874 25.4616 5.30218C24.7967 4.60561 23.8949 4.21429 22.9545 4.21429H13.9893L11.4826 1.58829C10.8179 0.891674 9.91624 0.50021 8.976 0.5H4.04545C3.10514 0.5 2.20334 0.891325 1.53844 1.58789C0.873538 2.28445 0.5 3.2292 0.5 4.21429V22.7857C0.5 23.7708 0.873538 24.7155 1.53844 25.4121C2.20334 26.1087 3.10514 26.5 4.04545 26.5H22.9545C23.8949 26.5 24.7967 26.1087 25.4616 25.4121C26.1265 24.7155 26.5 23.7708 26.5 22.7857ZM10.6471 2.46362L13.5 5.45238H22.9545C23.5814 5.45238 24.1826 5.71326 24.6259 6.17764C25.0692 6.64202 25.3182 7.27184 25.3182 7.92857V22.7857C25.3182 23.4424 25.0692 24.0723 24.6259 24.5366C24.1826 25.001 23.5814 25.2619 22.9545 25.2619H4.04545C3.41858 25.2619 2.81738 25.001 2.37411 24.5366C1.93084 24.0723 1.68182 23.4424 1.68182 22.7857V4.21429C1.68182 3.55756 1.93084 2.92773 2.37411 2.46335C2.81738 1.99898 3.41858 1.7381 4.04545 1.7381H8.976C9.60282 1.73824 10.2039 1.99921 10.6471 2.46362ZM13.0816 20.1288C13.1365 20.1864 13.2017 20.2322 13.2735 20.2634C13.3453 20.2946 13.4223 20.3106 13.5 20.3106C13.5777 20.3106 13.6547 20.2946 13.7265 20.2634C13.7983 20.2322 13.8635 20.1864 13.9184 20.1288L17.4638 16.4145C17.5748 16.2982 17.6371 16.1406 17.6371 15.9762C17.6371 15.8118 17.5748 15.6541 17.4638 15.5379C17.3529 15.4217 17.2024 15.3564 17.0455 15.3564C16.8885 15.3564 16.738 15.4217 16.6271 15.5379L14.0909 18.1961V11.0238C14.0909 10.8596 14.0287 10.7022 13.9178 10.5861C13.807 10.47 13.6567 10.4048 13.5 10.4048C13.3433 10.4048 13.193 10.47 13.0822 10.5861C12.9713 10.7022 12.9091 10.8596 12.9091 11.0238V18.1961L10.3729 15.5379C10.318 15.4803 10.2527 15.4347 10.181 15.4035C10.1092 15.3724 10.0322 15.3564 9.95455 15.3564C9.87685 15.3564 9.79991 15.3724 9.72813 15.4035C9.65635 15.4347 9.59112 15.4803 9.53618 15.5379C9.48124 15.5955 9.43766 15.6638 9.40793 15.739C9.37819 15.8142 9.36289 15.8948 9.36289 15.9762C9.36289 16.0576 9.37819 16.1382 9.40793 16.2134C9.43766 16.2886 9.48124 16.3569 9.53618 16.4145L13.0816 20.1288Z" fill="white" stroke="white"/>
</svg>
