<svg width="34" height="34" viewBox="0 0 34 34" fill="none" xmlns="http://www.w3.org/2000/svg">
<path d="M19.8333 2.83337H8.49996C7.74851 2.83337 7.02784 3.13188 6.49649 3.66324C5.96514 4.19459 5.66663 4.91526 5.66663 5.66671V28.3334C5.66663 29.0848 5.96514 29.8055 6.49649 30.3368C7.02784 30.8682 7.74851 31.1667 8.49996 31.1667H25.5C26.2514 31.1667 26.9721 30.8682 27.5034 30.3368C28.0348 29.8055 28.3333 29.0848 28.3333 28.3334V11.3334L19.8333 2.83337Z" stroke="#212B60" stroke-width="2" stroke-linecap="round" stroke-linejoin="round"/>
<path d="M19.8333 2.83337V11.3334H28.3333" stroke="#212B60" stroke-width="2" stroke-linecap="round" stroke-linejoin="round"/>
<path d="M22.6666 18.4166H11.3333" stroke="#212B60" stroke-width="2" stroke-linecap="round" stroke-linejoin="round"/>
<path d="M22.6666 24.0834H11.3333" stroke="#212B60" stroke-width="2" stroke-linecap="round" stroke-linejoin="round"/>
<path d="M14.1666 12.75H12.7499H11.3333" stroke="#212B60" stroke-width="2" stroke-linecap="round" stroke-linejoin="round"/>
</svg>
